<?xml version="1.0" encoding="UTF-8" standalone="no"?>
<svg
   xmlns:dc="http://purl.org/dc/elements/1.1/"
   xmlns:cc="http://creativecommons.org/ns#"
   xmlns:rdf="http://www.w3.org/1999/02/22-rdf-syntax-ns#"
   xmlns:svg="http://www.w3.org/2000/svg"
   xmlns="http://www.w3.org/2000/svg"
   viewBox="0 0 1066.6667 1066.6667"
   height="1066.6667"
   width="1066.6667"
   xml:space="preserve"
   id="svg2"
   version="1.1"><metadata
     id="metadata8"><rdf:RDF><cc:Work
         rdf:about=""><dc:format>image/svg+xml</dc:format><dc:type
           rdf:resource="http://purl.org/dc/dcmitype/StillImage" /></cc:Work></rdf:RDF></metadata><defs
     id="defs6"><clipPath
       id="clipPath24"
       clipPathUnits="userSpaceOnUse"><path
         id="path22"
         d="M 0,800 H 800 V 0 H 0 Z" /></clipPath></defs><g
     transform="matrix(1.3333333,0,0,-1.3333333,0,1066.6667)"
     id="g10"><path
       id="path12"
       style="fill:#ffffff;fill-opacity:1;fill-rule:nonzero;stroke:none"
       d="M 0,0 H 800 V 800 H 0 Z" /><g
       transform="translate(170.3626,372.7233)"
       id="g14"><path
         id="path16"
         style="fill:#000000;fill-opacity:1;fill-rule:nonzero;stroke:none"
         d="M 0,0 V 47.6 H 8.267 V 7.2 h 34.4 L 39.889,0 Z" /></g><g
       id="g18"><g
         clip-path="url(#clipPath24)"
         id="g20"><g
           transform="translate(279.3571,420.3237)"
           id="g26"><path
             id="path28"
             style="fill:#000000;fill-opacity:1;fill-rule:nonzero;stroke:none"
             d="m 0,0 v -29.4 c 0,-13.534 -9.8,-19.4 -23.867,-19.4 -14.067,0 -23.867,5.866 -23.867,19.4 V 0 l 8.267,-2.778 v -26.356 c 0,-8.867 6.4,-12.666 15.6,-12.666 9.2,0 15.6,3.799 15.6,12.666 v 26.356 z" /></g><g
           transform="translate(327.4837,414.3902)"
           id="g30"><path
             id="path32"
             style="fill:#000000;fill-opacity:1;fill-rule:nonzero;stroke:none"
             d="m 0,0 c -9.533,0 -17.533,-5.667 -17.533,-17.867 0,-12.2 8,-17.866 17.533,-17.866 10.067,0 15.6,2.727 15.933,10.06 h 9.534 C 25.134,-37.606 15.134,-42.867 0,-42.867 c -14.467,0 -26.533,8.2 -26.533,25 0,16.8 12.066,25 26.533,25 15.134,0 24.667,-5.26 25.333,-16.194 H 15.867 C 15.333,-2.727 10.067,0 0,0" /></g><g
           transform="translate(487.4705,420.3237)"
           id="g34"><path
             id="path36"
             style="fill:#000000;fill-opacity:1;fill-rule:nonzero;stroke:none"
             d="m 0,0 v -47.6 h -9.4 l -30.333,36.8 H -40 v -36.8 h -7.866 V 0 h 9.666 l 30,-36.467 h 0.267 l 0,36.467 z" /></g><g
           transform="translate(579.4587,372.7233)"
           id="g38"><path
             id="path40"
             style="fill:#000000;fill-opacity:1;fill-rule:nonzero;stroke:none"
             d="M 0,0 H -10.6 L 10.8,25.067 -8.733,47.6 H 1.733 L 20.74,24.676 Z" /></g><g
           transform="translate(627.8358,372.7233)"
           id="g42"><path
             id="path44"
             style="fill:#000000;fill-opacity:1;fill-rule:nonzero;stroke:none"
             d="M 0,0 H 10.6 L -10.8,25.067 8.733,47.6 H -1.733 L -20.74,24.676 Z" /></g><g
           transform="translate(382.8109,379.8566)"
           id="g46"><path
             id="path48"
             style="fill:#000000;fill-opacity:1;fill-rule:nonzero;stroke:none"
             d="m 0,0 v 10.162 4.105 6.933 4.598 7.536 h 33.466 v 7.133 H -8.267 v -47.6 h 42.6 V 0 Z" /></g><g
           transform="translate(407.8704,394.1232)"
           id="g50"><path
             id="path52"
             style="fill:#000000;fill-opacity:1;fill-rule:nonzero;stroke:none"
             d="M 0,0 2.778,6.933 H -14.631 V 0 Z" /></g><g
           transform="translate(551.8903,379.8566)"
           id="g54"><path
             id="path56"
             style="fill:#000000;fill-opacity:1;fill-rule:nonzero;stroke:none"
             d="m 0,0 h -34.333 v 10.162 4.105 6.933 4.598 7.536 h 33.466 v 7.133 H -42.6 v -47.6 H 0" /></g><g
           transform="translate(542.6165,394.1232)"
           id="g58"><path
             id="path60"
             style="fill:#000000;fill-opacity:1;fill-rule:nonzero;stroke:none"
             d="M 0,0 2.778,6.933 H -14.631 V 0 Z" /></g></g></g></g></svg>